<svg width="170" height="66" viewBox="0 0 170 66" fill="none" xmlns="http://www.w3.org/2000/svg">
<path d="M63.7931 44.7949C63.7944 44.7829 63.7944 44.7708 63.7931 44.7588L59.5676 23.0588C59.5676 23.0433 59.5676 23.0278 59.5676 23.0123C58.9153 19.4495 57.035 16.2279 54.2537 13.9077C51.4723 11.5875 47.9658 10.3154 44.3437 10.3125H21.6279C17.9957 10.3111 14.4793 11.5905 11.6972 13.9256C8.91505 16.2607 7.04536 19.5019 6.41695 23.0794L2.21203 44.7588C2.21078 44.7708 2.21078 44.7829 2.21203 44.7949C1.86976 46.7384 2.15584 48.7403 3.02874 50.5101C3.90164 52.28 5.3159 53.7255 7.06621 54.6368C8.81652 55.5482 10.8117 55.878 12.7622 55.5783C14.7127 55.2786 16.5169 54.365 17.9128 52.9702L18.003 52.8748L28.2356 41.25H37.7747L48.0124 52.8748C48.0408 52.9083 48.0717 52.9392 48.1027 52.9702C49.8424 54.7062 52.1985 55.6831 54.6562 55.6875C56.011 55.6866 57.3491 55.3892 58.5767 54.8161C59.8042 54.2429 60.8914 53.408 61.7619 52.37C62.6324 51.3319 63.2651 50.1158 63.6156 48.8072C63.966 47.4986 64.0257 46.1291 63.7905 44.7949H63.7931ZM26.8125 28.875H24.75V30.9375C24.75 31.4845 24.5327 32.0091 24.1459 32.3959C23.7591 32.7827 23.2345 33 22.6875 33C22.1405 33 21.6159 32.7827 21.2291 32.3959C20.8423 32.0091 20.625 31.4845 20.625 30.9375V28.875H18.5625C18.0155 28.875 17.4909 28.6577 17.1041 28.2709C16.7173 27.8841 16.5 27.3595 16.5 26.8125C16.5 26.2655 16.7173 25.7409 17.1041 25.3541C17.4909 24.9673 18.0155 24.75 18.5625 24.75H20.625V22.6875C20.625 22.1405 20.8423 21.6159 21.2291 21.2291C21.6159 20.8423 22.1405 20.625 22.6875 20.625C23.2345 20.625 23.7591 20.8423 24.1459 21.2291C24.5327 21.6159 24.75 22.1405 24.75 22.6875V24.75H26.8125C27.3595 24.75 27.8841 24.9673 28.2709 25.3541C28.6577 25.7409 28.875 26.2655 28.875 26.8125C28.875 27.3595 28.6577 27.8841 28.2709 28.2709C27.8841 28.6577 27.3595 28.875 26.8125 28.875ZM37.125 26.8125C37.125 26.2655 37.3423 25.7409 37.7291 25.3541C38.1159 24.9673 38.6405 24.75 39.1875 24.75H45.375C45.922 24.75 46.4466 24.9673 46.8334 25.3541C47.2202 25.7409 47.4375 26.2655 47.4375 26.8125C47.4375 27.3595 47.2202 27.8841 46.8334 28.2709C46.4466 28.6577 45.922 28.875 45.375 28.875H39.1875C38.6405 28.875 38.1159 28.6577 37.7291 28.2709C37.3423 27.8841 37.125 27.3595 37.125 26.8125ZM58.8766 49.3634C58.4903 49.9196 57.9974 50.3936 57.4265 50.7578C56.8556 51.122 56.2181 51.3693 55.5509 51.4852C54.7437 51.6263 53.9146 51.5739 53.1316 51.3324C52.3487 51.0908 51.6342 50.6669 51.0469 50.0955L43.2609 41.25H44.3437C46.9769 41.2504 49.5666 40.5785 51.8676 39.2981C54.1685 38.0177 56.1045 36.1711 57.4922 33.9333L59.7455 45.5348C59.8602 46.1988 59.8425 46.8788 59.6934 47.5359C59.5443 48.1929 59.2667 48.814 58.8766 49.3634Z" fill="#F43C3C"/>
<path d="M88.0455 15C87.858 14.4261 87.6108 13.9119 87.304 13.4574C87.0028 12.9972 86.642 12.6051 86.2216 12.2812C85.8068 11.9574 85.3352 11.7102 84.8068 11.5398C84.2784 11.3693 83.6989 11.2841 83.0682 11.2841C82.0341 11.2841 81.0938 11.5511 80.2472 12.0852C79.4006 12.6193 78.7273 13.4062 78.2273 14.446C77.7273 15.4858 77.4773 16.7614 77.4773 18.2727C77.4773 19.7841 77.7301 21.0597 78.2358 22.0994C78.7415 23.1392 79.4261 23.9261 80.2898 24.4602C81.1534 24.9943 82.125 25.2614 83.2045 25.2614C84.2045 25.2614 85.0852 25.0483 85.8466 24.6222C86.6136 24.1903 87.2102 23.5824 87.6364 22.7983C88.0682 22.0085 88.2841 21.0795 88.2841 20.0114L88.9318 20.1477H83.6818V18.2727H90.3295V20.1477C90.3295 21.5852 90.0227 22.8352 89.4091 23.8977C88.8011 24.9602 87.9602 25.7841 86.8864 26.3693C85.8182 26.9489 84.5909 27.2386 83.2045 27.2386C81.6591 27.2386 80.3011 26.875 79.1307 26.1477C77.9659 25.4205 77.0568 24.3864 76.4034 23.0455C75.7557 21.7045 75.4318 20.1136 75.4318 18.2727C75.4318 16.892 75.6165 15.6506 75.9858 14.5483C76.3608 13.4403 76.8892 12.4972 77.571 11.7188C78.2528 10.9403 79.0597 10.3438 79.9915 9.92898C80.9233 9.5142 81.9489 9.30682 83.0682 9.30682C83.9886 9.30682 84.8466 9.44602 85.642 9.72443C86.4432 9.99716 87.1562 10.3864 87.7812 10.892C88.4119 11.392 88.9375 11.9915 89.358 12.6903C89.7784 13.3835 90.0682 14.1534 90.2273 15H88.0455ZM97.5291 27.3068C96.6996 27.3068 95.9467 27.1506 95.2706 26.8381C94.5945 26.5199 94.0575 26.0625 93.6598 25.4659C93.2621 24.8636 93.0632 24.1364 93.0632 23.2841C93.0632 22.5341 93.2109 21.9261 93.5064 21.4602C93.8018 20.9886 94.1967 20.6193 94.6911 20.3523C95.1854 20.0852 95.7308 19.8864 96.3274 19.7557C96.9297 19.6193 97.5348 19.5114 98.1428 19.4318C98.9382 19.3295 99.5831 19.2528 100.077 19.2017C100.577 19.1449 100.941 19.0511 101.168 18.9205C101.401 18.7898 101.518 18.5625 101.518 18.2386V18.1705C101.518 17.3295 101.288 16.6761 100.827 16.2102C100.373 15.7443 99.6825 15.5114 98.7564 15.5114C97.7962 15.5114 97.0433 15.7216 96.4979 16.142C95.9524 16.5625 95.5689 17.0114 95.3473 17.4886L93.4382 16.8068C93.7791 16.0114 94.2337 15.392 94.8018 14.9489C95.3757 14.5 96.0007 14.1875 96.6768 14.0114C97.3587 13.8295 98.0291 13.7386 98.6882 13.7386C99.1087 13.7386 99.5916 13.7898 100.137 13.892C100.688 13.9886 101.219 14.1903 101.731 14.4972C102.248 14.804 102.677 15.267 103.018 15.8864C103.359 16.5057 103.529 17.3352 103.529 18.375V27H101.518V25.2273H101.415C101.279 25.5114 101.052 25.8153 100.734 26.1392C100.415 26.4631 99.9922 26.7386 99.4638 26.9659C98.9354 27.1932 98.2905 27.3068 97.5291 27.3068ZM97.8359 25.5C98.6314 25.5 99.3018 25.3438 99.8473 25.0312C100.398 24.7188 100.813 24.3153 101.092 23.821C101.376 23.3267 101.518 22.8068 101.518 22.2614V20.4205C101.433 20.5227 101.245 20.6165 100.955 20.7017C100.671 20.7812 100.342 20.8523 99.9666 20.9148C99.5973 20.9716 99.2365 21.0227 98.8842 21.0682C98.5376 21.108 98.2564 21.142 98.0405 21.1705C97.5178 21.2386 97.0291 21.3494 96.5746 21.5028C96.1257 21.6506 95.7621 21.875 95.4837 22.1761C95.2109 22.4716 95.0746 22.875 95.0746 23.3864C95.0746 24.0852 95.3331 24.6136 95.8501 24.9716C96.3729 25.3239 97.0348 25.5 97.8359 25.5ZM107.2 27V13.9091H109.143V15.9545H109.314C109.587 15.2557 110.027 14.7131 110.635 14.3267C111.243 13.9347 111.973 13.7386 112.825 13.7386C113.689 13.7386 114.408 13.9347 114.982 14.3267C115.561 14.7131 116.013 15.2557 116.337 15.9545H116.473C116.808 15.2784 117.311 14.7415 117.982 14.3438C118.652 13.9403 119.456 13.7386 120.393 13.7386C121.564 13.7386 122.521 14.1051 123.266 14.8381C124.01 15.5653 124.382 16.6989 124.382 18.2386V27H122.371V18.2386C122.371 17.2727 122.107 16.5824 121.578 16.1676C121.05 15.7528 120.428 15.5455 119.712 15.5455C118.791 15.5455 118.078 15.8239 117.572 16.3807C117.067 16.9318 116.814 17.6307 116.814 18.4773V27H114.768V18.0341C114.768 17.2898 114.527 16.6903 114.044 16.2358C113.561 15.7756 112.939 15.5455 112.178 15.5455C111.655 15.5455 111.166 15.6847 110.712 15.9631C110.263 16.2415 109.899 16.6278 109.621 17.1222C109.348 17.6108 109.212 18.1761 109.212 18.8182V27H107.2ZM133.548 27.2727C132.287 27.2727 131.199 26.9943 130.284 26.4375C129.375 25.875 128.673 25.0909 128.179 24.0852C127.69 23.0739 127.446 21.8977 127.446 20.5568C127.446 19.2159 127.69 18.0341 128.179 17.0114C128.673 15.983 129.361 15.1818 130.241 14.608C131.128 14.0284 132.162 13.7386 133.344 13.7386C134.026 13.7386 134.699 13.8523 135.364 14.0795C136.028 14.3068 136.634 14.6761 137.179 15.1875C137.724 15.6932 138.159 16.3636 138.483 17.1989C138.807 18.0341 138.969 19.0625 138.969 20.2841V21.1364H128.878V19.3977H136.923C136.923 18.6591 136.776 18 136.48 17.4205C136.19 16.8409 135.776 16.3835 135.236 16.0483C134.702 15.7131 134.071 15.5455 133.344 15.5455C132.543 15.5455 131.849 15.7443 131.264 16.142C130.685 16.5341 130.239 17.0455 129.926 17.6761C129.614 18.3068 129.457 18.983 129.457 19.7045V20.8636C129.457 21.8523 129.628 22.6903 129.969 23.3778C130.315 24.0597 130.795 24.5795 131.409 24.9375C132.023 25.2898 132.736 25.4659 133.548 25.4659C134.077 25.4659 134.554 25.392 134.98 25.2443C135.412 25.0909 135.784 24.8636 136.097 24.5625C136.409 24.2557 136.651 23.875 136.821 23.4205L138.764 23.9659C138.56 24.625 138.216 25.2045 137.733 25.7045C137.25 26.1989 136.653 26.5852 135.943 26.8636C135.233 27.1364 134.435 27.2727 133.548 27.2727ZM76.0227 32.7273H82.0909L88.5 48.3636H88.7727L95.1818 32.7273H101.25V56H96.4773V40.8523H96.2841L90.2614 55.8864H87.0114L80.9886 40.7955H80.7955V56H76.0227V32.7273ZM110.19 56.3295C109.077 56.3295 108.084 56.1364 107.213 55.75C106.342 55.3561 105.652 54.7765 105.145 54.0114C104.645 53.2386 104.395 52.2765 104.395 51.125C104.395 50.1553 104.573 49.3409 104.929 48.6818C105.285 48.0227 105.77 47.4924 106.384 47.0909C106.997 46.6894 107.694 46.3864 108.474 46.1818C109.262 45.9773 110.088 45.8333 110.952 45.75C111.967 45.6439 112.785 45.5455 113.406 45.4545C114.027 45.3561 114.478 45.2121 114.759 45.0227C115.039 44.8333 115.179 44.553 115.179 44.1818V44.1136C115.179 43.3939 114.952 42.8371 114.497 42.4432C114.05 42.0492 113.414 41.8523 112.588 41.8523C111.717 41.8523 111.024 42.0455 110.509 42.4318C109.993 42.8106 109.652 43.2879 109.486 43.8636L105.009 43.5C105.236 42.4394 105.683 41.5227 106.349 40.75C107.016 39.9697 107.876 39.3712 108.929 38.9545C109.99 38.5303 111.217 38.3182 112.611 38.3182C113.58 38.3182 114.509 38.4318 115.395 38.6591C116.289 38.8864 117.08 39.2386 117.77 39.7159C118.467 40.1932 119.016 40.8068 119.418 41.5568C119.819 42.2992 120.02 43.1894 120.02 44.2273V56H115.429V53.5795H115.293C115.012 54.125 114.637 54.6061 114.168 55.0227C113.698 55.4318 113.134 55.7538 112.474 55.9886C111.815 56.2159 111.054 56.3295 110.19 56.3295ZM111.577 52.9886C112.289 52.9886 112.918 52.8485 113.463 52.5682C114.009 52.2803 114.437 51.8939 114.747 51.4091C115.058 50.9242 115.213 50.375 115.213 49.7614V47.9091C115.062 48.0076 114.853 48.0985 114.588 48.1818C114.33 48.2576 114.039 48.3295 113.713 48.3977C113.387 48.4583 113.062 48.5152 112.736 48.5682C112.41 48.6136 112.115 48.6553 111.849 48.6932C111.281 48.7765 110.785 48.9091 110.361 49.0909C109.937 49.2727 109.607 49.5189 109.372 49.8295C109.137 50.1326 109.02 50.5114 109.02 50.9659C109.02 51.625 109.259 52.1288 109.736 52.4773C110.221 52.8182 110.834 52.9886 111.577 52.9886ZM128.616 45.9091V56H123.776V38.5455H128.389V41.625H128.594C128.98 40.6098 129.628 39.8068 130.537 39.2159C131.446 38.6174 132.548 38.3182 133.844 38.3182C135.056 38.3182 136.113 38.5833 137.014 39.1136C137.916 39.6439 138.616 40.4015 139.116 41.3864C139.616 42.3636 139.866 43.5303 139.866 44.8864V56H135.026V45.75C135.033 44.6818 134.76 43.8485 134.207 43.25C133.654 42.6439 132.893 42.3409 131.923 42.3409C131.272 42.3409 130.696 42.4811 130.196 42.7614C129.704 43.0417 129.317 43.4508 129.037 43.9886C128.764 44.5189 128.624 45.1591 128.616 45.9091ZM143.682 56V38.5455H148.523V56H143.682ZM146.114 36.2955C145.394 36.2955 144.777 36.0568 144.261 35.5795C143.754 35.0947 143.5 34.5152 143.5 33.8409C143.5 33.1742 143.754 32.6023 144.261 32.125C144.777 31.6402 145.394 31.3977 146.114 31.3977C146.833 31.3977 147.447 31.6402 147.955 32.125C148.47 32.6023 148.727 33.1742 148.727 33.8409C148.727 34.5152 148.47 35.0947 147.955 35.5795C147.447 36.0568 146.833 36.2955 146.114 36.2955ZM157.378 56.3295C156.264 56.3295 155.272 56.1364 154.401 55.75C153.529 55.3561 152.84 54.7765 152.332 54.0114C151.832 53.2386 151.582 52.2765 151.582 51.125C151.582 50.1553 151.76 49.3409 152.116 48.6818C152.473 48.0227 152.957 47.4924 153.571 47.0909C154.185 46.6894 154.882 46.3864 155.662 46.1818C156.45 45.9773 157.276 45.8333 158.139 45.75C159.154 45.6439 159.973 45.5455 160.594 45.4545C161.215 45.3561 161.666 45.2121 161.946 45.0227C162.226 44.8333 162.366 44.553 162.366 44.1818V44.1136C162.366 43.3939 162.139 42.8371 161.685 42.4432C161.238 42.0492 160.601 41.8523 159.776 41.8523C158.904 41.8523 158.211 42.0455 157.696 42.4318C157.181 42.8106 156.84 43.2879 156.673 43.8636L152.196 43.5C152.423 42.4394 152.87 41.5227 153.537 40.75C154.204 39.9697 155.063 39.3712 156.116 38.9545C157.177 38.5303 158.404 38.3182 159.798 38.3182C160.768 38.3182 161.696 38.4318 162.582 38.6591C163.476 38.8864 164.268 39.2386 164.957 39.7159C165.654 40.1932 166.204 40.8068 166.605 41.5568C167.007 42.2992 167.207 43.1894 167.207 44.2273V56H162.616V53.5795H162.48C162.2 54.125 161.825 54.6061 161.355 55.0227C160.885 55.4318 160.321 55.7538 159.662 55.9886C159.003 56.2159 158.241 56.3295 157.378 56.3295ZM158.764 52.9886C159.476 52.9886 160.105 52.8485 160.651 52.5682C161.196 52.2803 161.624 51.8939 161.935 51.4091C162.245 50.9242 162.401 50.375 162.401 49.7614V47.9091C162.249 48.0076 162.041 48.0985 161.776 48.1818C161.518 48.2576 161.226 48.3295 160.901 48.3977C160.575 48.4583 160.249 48.5152 159.923 48.5682C159.598 48.6136 159.302 48.6553 159.037 48.6932C158.469 48.7765 157.973 48.9091 157.548 49.0909C157.124 49.2727 156.795 49.5189 156.56 49.8295C156.325 50.1326 156.207 50.5114 156.207 50.9659C156.207 51.625 156.446 52.1288 156.923 52.4773C157.408 52.8182 158.022 52.9886 158.764 52.9886Z" fill="white"/>
</svg>
